# xmcd
#
# Track frame offsets:
#	150
#	14284
#	30795
#	47100
#	62445
#	75972
#	87522
#	102975
#	120582
#	133985
#	152810
#	167002
#	181232
#	196312
#	209197
#	222375
#	238477
#	250295
#	265880
#	275520
#
# Disc length: 3868 seconds
#
# Revision: 0
# Processed by: cddbd v1.5.2PL0 Copyright (c) Steve Scherf et al.
# Submitted via: EasyCDDAExtractor 16.0.3.1
#
DISCID=200f1a14
DTITLE=João Mineiro and Marciano - Os Maiores Sucessos
DYEAR=2005
DGENRE=Sertanejo
TTITLE0=Ainda Ontem Chorei De Saudade
TTITLE1=Seu Amor Ainda é Tudo
TTITLE2=Seu Eu Não Puder Te Esquecer
TTITLE3=Viola Esta Chorando
TTITLE4=Aline
TTITLE5=Whisky Com Gelo
TTITLE6=As Paredes Azuis
TTITLE7=Romaria
TTITLE8=Crises de Amor
TTITLE9=Distante Dos Olhos
TTITLE10=Benza Deus
TTITLE11=A Bailarina
TTITLE12=Viciado Em Você
TTITLE13=Telefone Mais
TTITLE14=Esta Noite Como Lembrança
TTITLE15=Não Se Bate Em Quem Se Ama
TTITLE16=A Mulher Que Eu Amo
TTITLE17=Se Eu Pudesse Conversar Com Deus
TTITLE18=A Mulher do Palhaço
TTITLE19=Chuvas de Maio (Los Aguaceros de Mayo)
EXTD=
EXTT0=
EXTT1=
EXTT2=
EXTT3=
EXTT4=
EXTT5=
EXTT6=
EXTT7=
EXTT8=
EXTT9=
EXTT10=
EXTT11=
EXTT12=
EXTT13=
EXTT14=
EXTT15=
EXTT16=
EXTT17=
EXTT18=
EXTT19=
PLAYORDER=
